<?xml version="1.0" standalone="no"?><!DOCTYPE svg PUBLIC "-//W3C//DTD SVG 1.1//EN" "http://www.w3.org/Graphics/SVG/1.1/DTD/svg11.dtd"><svg class="icon" height="512" viewBox="0 0 1024 1024" version="1.1" xmlns="http://www.w3.org/2000/svg"><path d="M330.531484 656.773268l306.599933 0c5.580089 0 10.070356-5.112438 10.070356-11.406794 0-6.320962-4.490268-11.45796-10.070356-11.45796L330.531484 633.908514c-5.601578 0-10.091846 5.13802-10.091846 11.45796C320.439638 651.66083 324.929906 656.773268 330.531484 656.773268zM330.531484 539.288506l306.599933 0c5.580089 0 10.070356-5.100158 10.070356-11.406794 0-6.332219-4.490268-11.45796-10.070356-11.45796L330.531484 516.423753c-5.601578 0-10.091846 5.124717-10.091846 11.45796C320.439638 534.188348 324.929906 539.288506 330.531484 539.288506zM330.531484 421.842631l306.599933 0c5.580089 0 10.070356-5.124717 10.070356-11.431354 0-6.319939-4.490268-11.432377-10.070356-11.432377L330.531484 398.9789c-5.601578 0-10.091846 5.113461-10.091846 11.432377C320.439638 416.71689 324.929906 421.842631 330.531484 421.842631zM759.190357 93.578282 289.474392 93.578282c-0.222057 0-0.400113 0.038886-0.644683 0.051165-0.222057-0.013303-0.422625-0.051165-0.644683-0.051165-51.437509 0-93.293803 47.451732-93.293803 105.756649l0 618.262162c0 7.810896 2.756787 15.208377 7.713682 20.60427l76.221985 83.341127c9.758248 10.635221 25.229614 10.635221 35.010375 0l77.733409-85.037768 80.690764 88.196715c9.759271 10.714016 25.252127 10.714016 35.032888 0l80.668251-88.196715 80.667228 88.196715c4.89038 5.343705 11.203156 8.040117 17.493419 8.040117 6.313799 0 12.626575-2.697435 17.516956-8.040117l73.042573-79.821977c4.936429-5.393847 7.713682-12.845563 7.713682-20.60427L784.396435 301.301254c40.612976-12.30628 70.598918-53.309136 70.598918-101.966323C854.995353 141.030014 812.00626 93.578282 759.190357 93.578282zM733.959719 812.124452l-47.836495 52.332902-80.667228-88.223321c-9.780761-10.686387-25.228591-10.686387-35.010375 0l-80.668251 88.223321-80.690764-88.223321c-9.780761-10.686387-25.229614-10.686387-35.010375 0l-77.755921 84.986603-51.014884-55.748698L245.305427 199.334931c0-26.808576 19.228947-48.594765 42.8796-48.594765 0.200568 0 0.400113-0.077771 0.577145-0.077771 0.267083 0 0.490164 0.077771 0.711198 0.077771l0.089028 0c24.986067 0.063445 45.302789 21.837354 45.302789 48.594765 0 26.795273-20.361747 48.606021-45.390793 48.606021-13.93743 0-25.207102 12.781094-25.207102 28.568662 0 15.798824 11.270694 28.606525 25.207102 28.606525L733.959719 305.116139 733.959719 812.124452zM759.190357 247.940952 374.566396 247.940952c6.845918-14.592346 10.736529-31.111578 10.736529-48.606021 0-17.496489-3.889587-34.028001-10.736529-48.594765l384.623961 0c25.029046 0 45.36828 21.786189 45.36828 48.594765C804.558637 226.130204 784.219403 247.940952 759.190357 247.940952z" /></svg>