<?xml version="1.0" encoding="UTF-8"?> <svg xmlns="http://www.w3.org/2000/svg" width="299" height="268"><style><![CDATA[.B{fill:#596B82}.C{fill:#fff}.D{fill:#393}.F{fill:red}.G{fill:#DD0010}.H{fill:#EBB39E}]]></style><path d="M232.5 257c-14.7.1-26.6.5-26.6 1.1s11.9 1 26.6.9 26.6-.5 26.6-1.1c0-.5-11.9-.9-26.6-.9zm-179.4-2.6c0 .8-7.9 1.5-17.7 1.7-9.8.1-17.7-.4-17.8-1.2 0-.8 7.9-1.5 17.7-1.7 9.8-.1 17.8.4 17.8 1.2zm-15.6-.8S23 204 14.4 225.8c-8.6 21.9 23.1 27.8 23.1 27.8zm84.3 2.5c-21.5.1-38.9.9-38.9 1.8s17.4 1.6 38.9 1.5 38.9-.9 38.9-1.8-17.4-1.6-38.9-1.5z" fill="#ccc"></path><path class="B" d="M146.5 238.1c0 11-8.8 19.9-19.8 19.9-10.9 0-19.9-8.8-19.9-19.8 0-10.9 8.8-19.9 19.8-19.9s19.9 8.8 19.9 19.8zm93.8-20.2c-10.9 0-19.8 8.9-19.8 19.9s8.9 19.8 19.9 19.8 19.8-8.9 19.8-19.9c-.1-11-9-19.8-19.9-19.8z"></path><path class="C" d="M136.5 238.1c0 5.7-4.5 10.3-10.2 10.3s-10.3-4.5-10.3-10.2 4.5-10.3 10.2-10.3c5.6 0 10.2 4.6 10.3 10.2zm103.8-10.6c-5.7 0-10.2 4.6-10.2 10.3s4.6 10.2 10.3 10.2 10.2-4.6 10.2-10.3c-.1-5.6-4.7-10.2-10.3-10.2z"></path><path class="D" d="M29.8 197.1c-9.7-2.7-16.7-11.4-16.2-21.7.3-5.5 2.7-4.9 6-8.2 3.5-3.6 1.5-4.9-1.5-8.8-5.6-7.1-10.9-15.1-8.8-24.7 2-9.1 12.7-9.1 10.2-18.5-3.2-12.1-2.1-24.2-.9-36.7.7-7.3 3.2-25.2 13.2-25.6 9.5-.4 9.2 17.3 9.5 23.3.3 5.6-.9 9.5 3.4 12.5 5.5 4 11.9 5.2 13.1 13.2 1.5 9.5-9 13.6-9.4 22-.3 7 9.7 10.9 13.3 16.6 6.8 10.7-6.2 11-7.2 19.6-.1.6-.4.9-.7 1.4 3.7 2.7 8.7 4.1 10.9 8.5 2.5 5.1.8 10.4-2.7 14.4-7.1 8.1-20.4 15.3-31.2 12.8-.2.1-.6 0-1-.1zm2.4-144.2h-.5l2.5 201.5h.5L32.2 52.9zm.8 73l24.7-25.3c0-.2-.1-.4-.2-.5l-24.9 25.5.4.3zm-.1-7.7L55 95.6l-.3-.3L32.6 118l.3.2zm.4 34.7l20-20.5c-.1-.1-.2-.2-.4-.3l-20 20.5.4.3zm-1.2-68.1l.3.3 8.9-9.2v-.7l-9.2 9.6zm.9 72.3l.3.3 22.4-23c-.1-.1-.2-.2-.4-.3l-22.3 23zm25.9 11.2l-25.4 26 .3.3 25.4-26-.3-.3zm-25.7-2l.3.3 25.4-26-.3-.3-25.4 26zm.2-28L17.8 123l-.3.3 15.6 15.3.3-.3zm.1 5.6l-18.6-18.2c-.1.1-.2.2-.4.3l18.7 18.2.3-.3zm.4 34.6l-13.1-12.8c-.1.1-.2.3-.3.4l13.1 12.7.3-.3zm-.5 8.2l.3.3 23.1-23.7a.76.76 0 0 0-.4-.2l-23 23.6zM21.1 65.1L32.3 76l.3-.3-11.3-11c0 .1-.1.2-.2.4zm11.9 37L17.9 87.4v.6l14.8 14.4.3-.3zm0 5.1l-15.4-15v.6l15.1 14.7.3-.3zm4.2 148.4l-.1-1.5c-.1-1.6-2.6-39.2 7.2-49.9 1.9-2.1 4.3-3 6.9-2.8 2.3.2 3.9 1.3 4.8 3.2 5.5 11.1-17.1 48.1-18.1 49.7l-.7 1.3zm13-53.2c-1.9 0-3.7.9-5.2 2.5-8.4 9.2-7.4 40.3-7.1 47.6 4.1-6.8 21.9-37.9 17.2-47.4-.8-1.6-2.1-2.4-4.1-2.6-.2-.1-.5-.1-.8-.1z"></path><path d="M180.5 172.3s21.6 18.7 24.1 26.3-3 10.8-6.2 13.2-13.7 7.7-19.5 11.8c-5.3 3.8-5 5.4-5 5.4l-4.4-2.7 6.7-10.3c5.2-6.6 9.7-5.3 13.6-12 3.1-5.4 1-8.1-6.1-12-9.4-5.2-18.6-11.1-22-18.6-3.4-7.6 2.6-12.7 2.6-12.7l16.2 11.6z" fill="#999"></path><path class="F" d="M229 217.1c21.8-23.6 6.3-51.4 6.3-51.4l3 .5s20.6 22.7.4 47.7l-9.7 3.2z"></path><path class="G" d="M236.9 167.2c0 2.3-1.8 4.2-4.1 4.2s-4.2-1.8-4.2-4.1 1.8-4.2 4.1-4.2 4.1 1.8 4.2 4.1z"></path><path class="F" d="M176.3 189s-10.5 21.7 1.3 35.5 39.9 8.9 39.9 8.9l-.2 9.5-135.5 5.6s5.8-50.4 30-63.3c24.1-13.1 56.9-6.4 64.5 3.8z"></path><path class="G" d="M151.7 242L84 244.7c-.7-.1-1.1-.1-1.1-.1s12.4-22.4 34.7-33.8 43.3-9.1 47.3 5.4c3 10.9-2.4 20.2-13.2 25.8z"></path><path class="C" d="M90.4 212.7l-.3-.2c.1-.1 5.1-7.3 13.3-14.4 7.6-6.6 19.4-14.4 32.9-14.3 26.9.2 38.7 1.4 38.8 1.4v.4c-.1 0-11.9-1.1-38.7-1.4h-.4c-25.4.1-45.4 28.2-45.6 28.5z"></path><path class="G" d="M265.6 186.6c0 5.8-1.9 10.5-4.3 10.5s-16.1-2.7-16.2-9.6c0-6.9 13.7-11.3 16.1-11.4 2.4 0 4.4 4.7 4.4 10.5z"></path><path class="F" d="M265.6 186.6c0 5.8-1.9 10.5-4.3 10.5s-4.4-4.7-4.4-10.5 1.9-10.5 4.3-10.5 4.4 4.7 4.4 10.5z"></path><path class="H" d="M191.7 163.9c-1.8 6.5-9.6 9.3-9.6 9.3-12.5-1.3-29.5-9.1-25-19.7 4.6-10.6 19-18.5 27.7-23.1s7.2-3.7 11.8-15.3c4.6-11.5 13.3-11.6 19.4-2.8 6 8.7-8.2 17.5-8.2 17.5-6.6 5.1-14.3 27.7-16.1 34.1z"></path><path d="M183.9 173s17.3 16.5 21.1 24.4c3.7 7.8-1.1 12.2-3.9 15.5-2.8 3.2-12.2 10.9-17.3 16.5-4.6 5.1-4.1 6.8-4.1 6.8l-4.8-2.2 4.8-12.4c4.1-8.2 8.7-7.5 11.4-15.5 2.1-6.4-1-8.3-7.5-13.6s-20.8-6.8-25.4-14.4.4-14.3.4-14.3l25.3 9.2zm4.2-44.7c6.7 6.2 17.6 4.6 17.6 4.6l1.8-2.7c-6.4 1.2-14.2-6.5-14.2-6.5l-5.2 4.6zm5.2-4.5s-9.2-1.5-20.3-6.5-29.8-12.5-45-6c0 0 12.9 5.5 8.6 13.6-.6.7 10.1-4.3 21-.9 10.8 3.4 24.2 7.8 30.9 4.3l4.8-4.5zm14.8-9c4.4-1.6 9.1 4 11.4 1.1s-2.1-3.5-2.1-3.5c-7.5-.4-13.7 4-9.3 2.4z" fill="#666"></path><path class="G" d="M206.7 131.3c-6.2 7.1-13 26.9-14.7 32.9-1.9 6.5-9.8 9.3-9.8 9.3-12.7-1.3-30-9.2-25.4-19.9s18.7-18.6 27.6-23.3c3.5-1.9 5.5-5.2 6.9-4.1 3.3 2.8 15.9 4.5 15.4 5.1z"></path><path class="H" d="M199.8 134.9c6.2 3.1 3.5 8.8 6.4 17.8 2.4 6.3 3.9 11.5 12 10.5s11.7-4.9 16.1-2.8 5.8 9 2.6 6.2-5.3-1.1-12.9.9c-9.6 2.5-15 4.4-22.9-3-7.9-7.3-15-24.9-9.7-29.3 2.5-2.2 4.3-2.4 8.4-.3z"></path><path class="F" d="M240.3 239.6c-8.3 4.3-16.6 6.4-22.7 6.1-1.2-3-1.9-6.2-1.9-9.6 0-13.8 11.1-25.1 24.9-25.1 8 0 15 3.7 19.6 9.4-1.7 6.1-9.3 13.7-19.9 19.2z"></path><path class="C" d="M182.1 231.7c-3.7 3.8 4.9 9 .6 8.3s-8.7-6.6-8.7-6.6l3.1-5.2c0 .1 8.7-.3 5 3.5z"></path><path d="M193.3 153.4c-3.7-7.4-5.3-15.5-1.9-18.3 2.5-2.1 4.3-2.3 8.4-.2 5.1 2.5 4.2 6.8 5.3 13.2-.7-.1-8.6-.5-11.8 5.3z" fill="#dd6164"></path><path d="M264.8 185.2c0 4.3-1.4 7.9-3.2 7.9s-3.3-3.5-3.3-7.8 1.4-7.9 3.2-7.9 3.3 3.5 3.3 7.8zm-128 44.4c0-.4-.4-.7-.9-.7l-34.1.1c-.5 0-.9.3-.9.7s.4.7.9.7l34.1-.1a.75.75 0 0 0 .9-.7zm81.8 10.4c0-.4-.6-.7-1.3-.7l-50.9.2c-.7 0-1.3.3-1.3.7s.6.7 1.3.7l50.9-.2c.7 0 1.3-.3 1.3-.7zm-94-5.2a.68.68 0 0 0-.7-.7l-27.9.1a.68.68 0 1 0 0 1.4l27.9-.1a.68.68 0 0 0 .7-.7z" opacity=".4" fill="#fff"></path><path class="C" d="M186.3 171.3c-.3.2-.5.3-.7.5H184c-11.5 0-18.4-4.8-22.2-9-3-3.3-4.5-6.7-5.3-8.6.1-.2.1-.4.2-.6.6 1.8 2.2 5.4 5.4 8.9 4 4.4 11.5 9.5 24.2 8.8z"></path><path d="M217.3 112.4c-.8.4-.6.5-2.4.4-3 0-8.4.5-10.8 6.5-.3.8.3 1.8-1.3 2.7-1.6.8-4.3.5-4.3.5l-4.5-.5s-9.8-13.5 4.4-19.6c9.7-4.2 16.3 3.2 18.3 7.4 1 1.9 1.4 2.2.6 2.6zm-62.6 30.1l-44.7.2.1 36.9 44.7-.2-.1-36.9z" fill="#ff0"></path><path class="C" d="M216.5 109.4c.1.1.1.2.2.3v.1c-1.9 0-5.9.1-8.4 1.6-2.8 1.6-4.6 3.8-5.6 6.9-.5 1.5-2.6 2.3-5.5 2.3-1.3 0-2.8-.2-4.3-.5-.1-.1-.2-.3-.2-.5 5 1.1 9.1.5 9.7-1.5 1-3.2 2.9-5.5 5.8-7.1 2.5-1.4 6.4-1.6 8.3-1.6z"></path><path d="M154.7 147.2l-44.7.2v-4.7l44.7-.2v4.7z" fill="#fc0"></path><path d="M149.4 166.4c0 1.4-7.6 3.1-16.9 3.1s-16.9-1.6-16.9-3 7.6-2.6 16.9-2.6 16.9 1.1 16.9 2.5z" fill="#727f9b"></path><path class="B" d="M133.4 168.4s1.3 7 5.5 7.2c0 0-1.7 1.2-6.6 1.1s-6.2-1.1-6.2-1.1c4.2-.3 5.5-7.2 5.5-7.2h1.8zm13.5-3.2c0-7.8-6.4-14.2-14.3-14.1-7.8 0-14.2 6.4-14.2 14.2.1 1.2 6.4 2.2 14.2 2.1 7.9 0 14.2-1 14.3-2.2zm-14-16.9a1.58 1.58 0 1 0 0 3.2 1.58 1.58 0 1 0 0-3.2z"></path><path d="M131.5 152.5s-5.7 3.2-5.8 13.3c0 0-2.7-.2-4.6-.6.2-4.2 1.5-11.4 10.4-12.7z" opacity=".5" fill="#fff"></path><path class="F" d="M133.5 141.9v-.9l-.4-3.2c-.1-.7-.3-1.4-.5-2.1s-.5-1.5-.9-2.3c-.2-.4-.4-.8-.8-1.2-.3-.4-.7-.8-1.2-1.1s-1.2-.4-1.9-.3c-.2 0-.3.1-.5.1s-.3.1-.5.2l-.2.1c-.1 0-.1.1-.1.1l-.3.2s-.1 0-.1.1l-.1.1-.2.1-.3.3c-.2.2-.4.4-.6.7-.3.5-.5 1.2-.5 1.8s.2 1.1.4 1.6.5.9.7 1.2c.5.7 1.1 1.3 1.7 1.8l1.7 1.3c1.1.8 2.1 1.3 2.8 1.7s1.1.5 1.1.5h.2c.2 0 .4-.2.4-.4.1-.1.1-.2.1-.4zm-6.3-8.8c-.1 0 0 0 0 0zm5.1 8.1l-2.4-2c-.5-.4-1-.9-1.5-1.4a11.51 11.51 0 0 1-1.4-1.7c-.4-.6-.7-1.3-.7-1.8 0-.3.1-.5.2-.7l.3-.3c0-.1.1-.1.2-.2l.2-.2.3-.2.1-.1h.1c.1 0 .1 0 .2-.1h.2c.2 0 .4 0 .6.1s.5.3.7.6l.6.9 1.6 3.9c.4 1.4.6 2.4.7 3.2.1 0 .1 0 .1.1 0 0 0-.1-.1-.1zm11.1-7c0-.2-.1-.4-.2-.5-.1-.2-.2-.4-.4-.5l-.1-.1h-.1l-.1-.1s-.1 0-.1-.1c.1.1-.1-.1-.1-.1l-.2-.1a.76.76 0 0 0-.4-.2c-.3-.1-.6-.2-1-.2-.7 0-1.2.2-1.6.5-.5.2-.8.5-1.1.9l-.9.9c-.5.6-.9 1.3-1.3 1.9s-.7 1.2-1 1.8l-1.2 2.8-.3 1.1v.2c.1.2.3.3.5.2 0 0 .4-.1 1-.4.7-.3 1.6-.7 2.7-1.4.5-.3 1.1-.6 1.7-1.1.6-.4 1.2-.8 1.8-1.4.3-.3.6-.5.9-.9.3-.3.6-.7.9-1.1s.5-.9.6-1.7c.1 0 .1-.2 0-.4zm-2 .6c0 .1-.1.3-.2.6-.3.5-.8 1.1-1.3 1.6s-1 1-1.6 1.4l-1.5 1.2-1.7 1.3 1.1-1.8c.3-.5.7-1 1.1-1.6.4-.5.8-1.1 1.3-1.6s1-1 1.5-1.3c.3-.1.5-.2.6-.2h.2s.1 0 .1.1h.1l.1.1c.1.1.2.1.2.2 0-.1 0-.1 0 0 0-.1 0-.1 0 0zm-14.7 9.4c-3.2 0-6.1-1.7-8.8-5-4.9-6.1-9.9-5.9-17.6-4.9-.4.1-.8-.2-.9-.7-.1-.4.2-.8.7-.9 8-1.1 13.6-1.3 19 5.4 3.9 4.8 8 5.7 13.1 2.7.4-.2.8-.1 1 .3s.1.8-.3 1c-2.1 1.4-4.2 2.1-6.2 2.1z"></path></svg> 