<svg height="512pt" viewBox="-16 0 512 512.00016" width="512pt" xmlns="http://www.w3.org/2000/svg"><path fill="#fff" d="m119.96875 285.992188c0 8.285156-6.714844 15-15 15s-15-6.714844-15-15c0-8.28125 6.714844-15 15-15s15 6.71875 15 15zm0 0"/><path fill="#fff" d="m473.308594 213.515625-89.996094-60c-4.605469-3.070313-10.523438-3.355469-15.398438-.746094-4.878906 2.613281-7.921874 7.695313-7.921874 13.226563v15h-30v-165.996094c0-8.285156-6.714844-15-15-15h-299.992188c-.0625 0-.121094.0078125-.179688.0078125-8.300781.0976565-14.820312 6.8945315-14.820312 14.9921875v391.992188c0 5.265624 2.765625 10.148437 7.28125 12.859374l149.996094 90c9.933594 5.957032 22.71875-1.15625 22.71875-12.863281v-75h134.996094c8.285156 0 15-6.714843 15-14.996093v-136h30v15c0 5.53125 3.042968 10.617187 7.921874 13.226562 4.867188 2.601562 10.78125 2.332031 15.398438-.746094l89.996094-59.996094c4.171875-2.78125 6.679687-7.46875 6.679687-12.480468 0-5.015625-2.507812-9.699219-6.679687-12.480469zm-323.3125 256.980469-119.996094-72v-357.003906l119.996094 72zm149.996094-78.503906h-119.996094v-286.996094c0-5.265625-2.765625-10.148438-7.28125-12.859375l-103.5625-62.136719h230.839844v150.996094h-74.996094c-8.285156 0-15 6.714844-15 15v59.996094c0 8.285156 6.714844 15 15 15h74.996094zm90-134.027344v-1.972656c0-8.28125-6.71875-14.996094-15-14.996094h-134.996094v-30h134.996094c8.28125 0 15-6.71875 15-15v-1.972656l47.957031 31.972656zm0 0"/></svg>